<?xml version="1.0" encoding="UTF-8" standalone="no"?> <svg id="Layer_1" data-name="Layer 1" xmlns="http://www.w3.org/2000/svg" viewBox="0 0 128 128"><defs><style>.cls-1{fill:#2d3e50;}.cls-2{fill:#2e79bd;}</style></defs><title>b</title><path class="cls-1" d="M11.77927,108.88077h11.3586L25.382,42.95726H40.56509l2.23961,65.92413H54.1678l2.23957-65.92413H71.59259l2.23961,65.92413H85.19531l2.23957-65.92413h15.18135l2.24409,65.92351h11.36392L118.463,42.95726l.0532-1.63254V25.55243L63.462,4.28163,9.482,25.55243V41.32472l.0532,1.63254ZM63.99909,16.08161a7.53783,7.53783,0,1,1-7.54049,7.54049A7.54143,7.54143,0,0,1,63.99909,16.08161Z"/><polygon class="cls-2" points="121.447 112.551 6.553 112.551 4.426 118.135 4.426 123.718 123.574 123.718 123.574 118.135 121.447 112.551"/></svg>